<svg width="45" height="45" viewBox="0 0 45 45" fill="none" xmlns="http://www.w3.org/2000/svg">
<g clip-path="url(#clip0_953_582)">
<path d="M44.094 18.45L28.3503 7.2C27.9505 6.9 27.5006 6.75 27.0008 6.75C26.501 6.75 26.0512 6.9 25.6514 7.2L15.9053 14.25C16.505 14.65 17.0048 15.2 17.4047 15.9L27.0008 9L42.7445 20.25H38.2463V40.5H15.9053L15.7553 42.75H38.2463C38.8461 42.75 39.3709 42.525 39.8207 42.075C40.2705 41.625 40.4954 41.1 40.4954 40.5V22.5H42.7445C43.2443 22.5 43.6942 22.35 44.094 22.05C44.4938 21.75 44.7687 21.375 44.9187 20.925C45.0686 20.475 45.0686 20.025 44.9187 19.575C44.7687 19.125 44.4938 18.75 44.094 18.45ZM18.0044 30L15.7553 17.55C15.6554 17.05 15.3805 16.625 14.9307 16.275C14.4808 15.925 14.006 15.75 13.5062 15.75H4.50984C4.01004 15.75 3.53523 15.925 3.08541 16.275C2.63559 16.625 2.3607 17.05 2.26074 17.55L0.0116368 30C-0.0883232 30.7 0.0866068 31.3 0.536427 31.8C0.986247 32.3 1.56102 32.55 2.26074 32.55H3.76014L4.50984 42.9C4.6098 43.5 4.8597 44 5.25954 44.4C5.65938 44.8 6.15918 45 6.75894 45H11.2571C11.8569 45 12.3567 44.8 12.7565 44.4C13.1564 44 13.4063 43.5 13.5062 42.9L14.2559 32.55H15.7553C16.4551 32.55 17.0298 32.3 17.4796 31.8C17.9295 31.3 18.1044 30.7 18.0044 30ZM12.3067 30.3L11.2571 42.75H6.75894L5.70936 30.3H2.26074L4.50984 18H7.80852V24.9C7.80852 25.2 7.93347 25.45 8.18337 25.65C8.43327 25.85 8.70816 25.95 9.00804 25.95C9.30792 25.95 9.55782 25.85 9.75774 25.65C9.95766 25.45 10.0576 25.2 10.0576 24.9V18H13.5062L15.7553 30.3H12.3067ZM9.00804 0C7.1088 0 5.50944 0.649998 4.20996 1.95C2.91048 3.25 2.26074 4.85 2.26074 6.75C2.26074 8.65 2.91048 10.25 4.20996 11.55C5.50944 12.85 7.1088 13.5 9.00804 13.5C10.9073 13.5 12.5066 12.85 13.8061 11.55C15.1056 10.25 15.7553 8.65 15.7553 6.75C15.7553 4.85 15.1056 3.25 13.8061 1.95C12.5066 0.649998 10.9073 0 9.00804 0ZM9.00804 11.25C7.80852 11.25 6.75894 10.8 5.8593 9.9C4.95966 9 4.50984 7.95 4.50984 6.75C4.50984 5.55 4.95966 4.5 5.8593 3.6C6.75894 2.7 7.80852 2.25 9.00804 2.25C10.2076 2.25 11.2571 2.7 12.1568 3.6C13.0564 4.5 13.5062 5.55 13.5062 6.75C13.5062 7.95 13.0564 9 12.1568 9.9C11.2571 10.8 10.2076 11.25 9.00804 11.25Z" fill="#1A1A1A"/>
</g>
<defs>
<clipPath id="clip0_953_582">
<rect width="45" height="45" fill="white" transform="matrix(1 0 0 -1 0 45)"/>
</clipPath>
</defs>
</svg>
